<svg width="480" height="380" viewBox="0 0 480 380" fill="none" xmlns="http://www.w3.org/2000/svg">
<g clip-path="url(#clip0_40_2)">
<path d="M0 5C0 2.23858 2.23858 0 5 0H475C477.761 0 480 2.23858 480 5V35H0V5Z" fill="#333333"/>
<rect x="448" y="7" width="20" height="20" rx="10" fill="#FF3C3C"/>
<rect x="461.614" y="12.122" width="1.20435" height="12.0435" rx="0.602175" transform="rotate(42 461.614 12.122)" fill="black"/>
<rect x="453.555" y="12.9279" width="1.20435" height="12.0435" rx="0.602175" transform="rotate(-42 453.555 12.9279)" fill="black"/>
<rect x="416" y="7" width="20" height="20" rx="10" fill="#FFE500"/>
<mask id="path-6-inside-1_40_2" fill="white">
<rect x="421" y="12" width="10" height="10" rx="1"/>
</mask>
<rect x="421" y="12" width="10" height="10" rx="1" stroke="black" stroke-width="2.4" mask="url(#path-6-inside-1_40_2)"/>
<rect x="384" y="7" width="20" height="20" rx="10" fill="#24FF00"/>
<rect x="388" y="16.3" width="12" height="1.3" rx="0.65" fill="black"/>
<path d="M173.968 12.576L171.052 18.216V21H169V18.216L166.084 12.576H168.412L170.044 16.104L171.664 12.576H173.968ZM181.455 12.576V14.22H179.223V21H177.171V14.22H174.939V12.576H181.455ZM192.648 15.288C192.648 15.776 192.536 16.224 192.312 16.632C192.088 17.032 191.744 17.356 191.28 17.604C190.816 17.852 190.24 17.976 189.552 17.976H188.28V21H186.228V12.576H189.552C190.224 12.576 190.792 12.692 191.256 12.924C191.72 13.156 192.068 13.476 192.3 13.884C192.532 14.292 192.648 14.76 192.648 15.288ZM189.396 16.344C189.788 16.344 190.08 16.252 190.272 16.068C190.464 15.884 190.56 15.624 190.56 15.288C190.56 14.952 190.464 14.692 190.272 14.508C190.08 14.324 189.788 14.232 189.396 14.232H188.28V16.344H189.396ZM196.368 12.12V21H194.316V12.12H196.368ZM198.047 17.64C198.047 16.952 198.175 16.348 198.431 15.828C198.695 15.308 199.051 14.908 199.499 14.628C199.947 14.348 200.447 14.208 200.999 14.208C201.471 14.208 201.883 14.304 202.235 14.496C202.595 14.688 202.871 14.94 203.063 15.252V14.304H205.115V21H203.063V20.052C202.863 20.364 202.583 20.616 202.223 20.808C201.871 21 201.459 21.096 200.987 21.096C200.443 21.096 199.947 20.956 199.499 20.676C199.051 20.388 198.695 19.984 198.431 19.464C198.175 18.936 198.047 18.328 198.047 17.64ZM203.063 17.652C203.063 17.14 202.919 16.736 202.631 16.44C202.351 16.144 202.007 15.996 201.599 15.996C201.191 15.996 200.843 16.144 200.555 16.44C200.275 16.728 200.135 17.128 200.135 17.64C200.135 18.152 200.275 18.56 200.555 18.864C200.843 19.16 201.191 19.308 201.599 19.308C202.007 19.308 202.351 19.16 202.631 18.864C202.919 18.568 203.063 18.164 203.063 17.652ZM214.039 14.304L209.839 24.18H207.631L209.167 20.772L206.443 14.304H208.735L210.283 18.492L211.819 14.304H214.039ZM221.694 17.544C221.694 17.736 221.682 17.936 221.658 18.144H217.014C217.046 18.56 217.178 18.88 217.41 19.104C217.65 19.32 217.942 19.428 218.286 19.428C218.798 19.428 219.154 19.212 219.354 18.78H221.538C221.426 19.22 221.222 19.616 220.926 19.968C220.638 20.32 220.274 20.596 219.834 20.796C219.394 20.996 218.902 21.096 218.358 21.096C217.702 21.096 217.118 20.956 216.606 20.676C216.094 20.396 215.694 19.996 215.406 19.476C215.118 18.956 214.974 18.348 214.974 17.652C214.974 16.956 215.114 16.348 215.394 15.828C215.682 15.308 216.082 14.908 216.594 14.628C217.106 14.348 217.694 14.208 218.358 14.208C219.006 14.208 219.582 14.344 220.086 14.616C220.59 14.888 220.982 15.276 221.262 15.78C221.55 16.284 221.694 16.872 221.694 17.544ZM219.594 17.004C219.594 16.652 219.474 16.372 219.234 16.164C218.994 15.956 218.694 15.852 218.334 15.852C217.99 15.852 217.698 15.952 217.458 16.152C217.226 16.352 217.082 16.636 217.026 17.004H219.594ZM225.428 15.42C225.668 15.052 225.968 14.764 226.328 14.556C226.688 14.34 227.088 14.232 227.528 14.232V16.404H226.964C226.452 16.404 226.068 16.516 225.812 16.74C225.556 16.956 225.428 17.34 225.428 17.892V21H223.376V14.304H225.428V15.42ZM237.412 15.936V17.64H232.132V15.936H237.412ZM250.864 12.576L247.876 21H245.308L242.32 12.576H244.504L246.592 18.936L248.692 12.576H250.864ZM253.353 13.608C252.993 13.608 252.697 13.504 252.465 13.296C252.241 13.08 252.129 12.816 252.129 12.504C252.129 12.184 252.241 11.92 252.465 11.712C252.697 11.496 252.993 11.388 253.353 11.388C253.705 11.388 253.993 11.496 254.217 11.712C254.449 11.92 254.565 12.184 254.565 12.504C254.565 12.816 254.449 13.08 254.217 13.296C253.993 13.504 253.705 13.608 253.353 13.608ZM254.373 14.304V21H252.321V14.304H254.373ZM256.052 17.64C256.052 16.952 256.18 16.348 256.436 15.828C256.7 15.308 257.056 14.908 257.504 14.628C257.952 14.348 258.452 14.208 259.004 14.208C259.444 14.208 259.844 14.3 260.204 14.484C260.572 14.668 260.86 14.916 261.068 15.228V12.12H263.12V21H261.068V20.04C260.876 20.36 260.6 20.616 260.24 20.808C259.888 21 259.476 21.096 259.004 21.096C258.452 21.096 257.952 20.956 257.504 20.676C257.056 20.388 256.7 19.984 256.436 19.464C256.18 18.936 256.052 18.328 256.052 17.64ZM261.068 17.652C261.068 17.14 260.924 16.736 260.636 16.44C260.356 16.144 260.012 15.996 259.604 15.996C259.196 15.996 258.848 16.144 258.56 16.44C258.28 16.728 258.14 17.128 258.14 17.64C258.14 18.152 258.28 18.56 258.56 18.864C258.848 19.16 259.196 19.308 259.604 19.308C260.012 19.308 260.356 19.16 260.636 18.864C260.924 18.568 261.068 18.164 261.068 17.652ZM271.517 17.544C271.517 17.736 271.505 17.936 271.481 18.144H266.837C266.869 18.56 267.001 18.88 267.233 19.104C267.473 19.32 267.765 19.428 268.109 19.428C268.621 19.428 268.977 19.212 269.177 18.78H271.361C271.249 19.22 271.045 19.616 270.749 19.968C270.461 20.32 270.097 20.596 269.657 20.796C269.217 20.996 268.725 21.096 268.181 21.096C267.525 21.096 266.941 20.956 266.429 20.676C265.917 20.396 265.517 19.996 265.229 19.476C264.941 18.956 264.797 18.348 264.797 17.652C264.797 16.956 264.937 16.348 265.217 15.828C265.505 15.308 265.905 14.908 266.417 14.628C266.929 14.348 267.517 14.208 268.181 14.208C268.829 14.208 269.405 14.344 269.909 14.616C270.413 14.888 270.805 15.276 271.085 15.78C271.373 16.284 271.517 16.872 271.517 17.544ZM269.417 17.004C269.417 16.652 269.297 16.372 269.057 16.164C268.817 15.956 268.517 15.852 268.157 15.852C267.813 15.852 267.521 15.952 267.281 16.152C267.049 16.352 266.905 16.636 266.849 17.004H269.417ZM276.247 21.096C275.591 21.096 274.999 20.956 274.471 20.676C273.951 20.396 273.539 19.996 273.235 19.476C272.939 18.956 272.791 18.348 272.791 17.652C272.791 16.964 272.943 16.36 273.247 15.84C273.551 15.312 273.967 14.908 274.495 14.628C275.023 14.348 275.615 14.208 276.271 14.208C276.927 14.208 277.519 14.348 278.047 14.628C278.575 14.908 278.991 15.312 279.295 15.84C279.599 16.36 279.751 16.964 279.751 17.652C279.751 18.34 279.595 18.948 279.283 19.476C278.979 19.996 278.559 20.396 278.023 20.676C277.495 20.956 276.903 21.096 276.247 21.096ZM276.247 19.32C276.639 19.32 276.971 19.176 277.243 18.888C277.523 18.6 277.663 18.188 277.663 17.652C277.663 17.116 277.527 16.704 277.255 16.416C276.991 16.128 276.663 15.984 276.271 15.984C275.871 15.984 275.539 16.128 275.275 16.416C275.011 16.696 274.879 17.108 274.879 17.652C274.879 18.188 275.007 18.6 275.263 18.888C275.527 19.176 275.855 19.32 276.247 19.32ZM282.4 21.096C282.04 21.096 281.744 20.992 281.512 20.784C281.288 20.568 281.176 20.304 281.176 19.992C281.176 19.672 281.288 19.404 281.512 19.188C281.744 18.972 282.04 18.864 282.4 18.864C282.752 18.864 283.04 18.972 283.264 19.188C283.496 19.404 283.612 19.672 283.612 19.992C283.612 20.304 283.496 20.568 283.264 20.784C283.04 20.992 282.752 21.096 282.4 21.096ZM293.971 14.232C294.803 14.232 295.463 14.484 295.951 14.988C296.447 15.492 296.695 16.192 296.695 17.088V21H294.655V17.364C294.655 16.932 294.539 16.6 294.307 16.368C294.083 16.128 293.771 16.008 293.371 16.008C292.971 16.008 292.655 16.128 292.423 16.368C292.199 16.6 292.087 16.932 292.087 17.364V21H290.047V17.364C290.047 16.932 289.931 16.6 289.699 16.368C289.475 16.128 289.163 16.008 288.763 16.008C288.363 16.008 288.047 16.128 287.815 16.368C287.591 16.6 287.479 16.932 287.479 17.364V21H285.427V14.304H287.479V15.144C287.687 14.864 287.959 14.644 288.295 14.484C288.631 14.316 289.011 14.232 289.435 14.232C289.939 14.232 290.387 14.34 290.779 14.556C291.179 14.772 291.491 15.08 291.715 15.48C291.947 15.112 292.263 14.812 292.663 14.58C293.063 14.348 293.499 14.232 293.971 14.232ZM300.782 15.252C300.982 14.94 301.258 14.688 301.61 14.496C301.962 14.304 302.374 14.208 302.846 14.208C303.398 14.208 303.898 14.348 304.346 14.628C304.794 14.908 305.146 15.308 305.402 15.828C305.666 16.348 305.798 16.952 305.798 17.64C305.798 18.328 305.666 18.936 305.402 19.464C305.146 19.984 304.794 20.388 304.346 20.676C303.898 20.956 303.398 21.096 302.846 21.096C302.382 21.096 301.97 21 301.61 20.808C301.258 20.616 300.982 20.368 300.782 20.064V24.192H298.73V14.304H300.782V15.252ZM303.71 17.64C303.71 17.128 303.566 16.728 303.278 16.44C302.998 16.144 302.65 15.996 302.234 15.996C301.826 15.996 301.478 16.144 301.19 16.44C300.91 16.736 300.77 17.14 300.77 17.652C300.77 18.164 300.91 18.568 301.19 18.864C301.478 19.16 301.826 19.308 302.234 19.308C302.642 19.308 302.99 19.16 303.278 18.864C303.566 18.56 303.71 18.152 303.71 17.64ZM307.318 19.44V17.784L311.11 12.36H313.402V17.664H314.386V19.44H313.402V21H311.35V19.44H307.318ZM311.494 14.616L309.478 17.664H311.494V14.616Z" fill="white"/>
<g clip-path="url(#clip1_40_2)">
<path d="M27.4377 13.2423C26.2587 12.3936 24.6037 11.4671 22.4977 10.288C20.4635 9.14905 18.7479 8.18862 17.4456 7.64273C16.1328 7.09246 14.936 6.81356 13.7728 7.13841C12.9179 7.37712 12.1401 7.83022 11.5135 8.45321C10.6631 9.29873 10.3218 10.4674 10.1603 11.8737C9.99998 13.2698 9.99999 15.0973 10 17.4217L10 17.5491L10 17.5493C9.99999 19.8735 9.99998 21.7012 10.1603 23.0971C10.3218 24.5036 10.6631 25.672 11.5135 26.5176C12.1401 27.1406 12.9179 27.5937 13.7728 27.8325C14.936 28.1573 16.1328 27.8785 17.4456 27.3281C18.7479 26.7822 20.4635 25.8217 22.4979 24.6827C24.6037 23.5038 26.2587 22.5773 27.4377 21.7285C28.6248 20.874 29.5027 19.9807 29.8171 18.8032C30.0477 17.9396 30.0477 17.0312 29.8171 16.1676C29.5027 14.9901 28.6248 14.0969 27.4377 13.2423Z" fill="#67FF5B"/>
<path d="M27.4382 13.2439C28.6254 14.0985 29.5032 14.9916 29.8177 16.1692C30.0483 17.0328 30.0483 17.9412 29.8177 18.8047C29.5032 19.9823 28.6254 20.8755 27.4382 21.73C26.2593 22.5788 24.6044 23.5053 22.4985 24.6844C20.4642 25.8233 18.7486 26.7838 17.4462 27.3296C16.1334 27.88 14.9366 28.1587 13.7734 27.8341C12.9185 27.5953 12.1407 27.1422 11.5141 26.5191C10.6637 25.6737 10.3224 24.5051 10.1609 23.0988C10.063 22.2467 10.0249 21.234 10.0101 20.0458L25.2899 11.8753C26.1252 12.3664 26.8425 12.8151 27.4382 13.2439Z" fill="#FF5959"/>
<path d="M18.1762 14.3629C18.3222 14.3629 18.4524 14.4192 18.5667 14.5319C18.6873 14.6382 18.7476 14.7759 18.7476 14.9448C18.7476 15.0011 18.7381 15.0606 18.719 15.1231C18.7063 15.1795 18.681 15.2358 18.6429 15.2921L16.481 18.3424L16.6524 17.6948V20.3884C16.6524 20.5511 16.5952 20.6887 16.481 20.8014C16.373 20.9078 16.246 20.9609 16.1 20.9609C15.9413 20.9609 15.8048 20.9078 15.6905 20.8014C15.5825 20.6887 15.5286 20.5511 15.5286 20.3884V17.7698L15.6048 18.0702L13.5476 15.3765C13.4841 15.2952 13.4397 15.217 13.4143 15.1419C13.3889 15.0668 13.3762 14.998 13.3762 14.9354C13.3762 14.7665 13.4429 14.6288 13.5762 14.5225C13.7095 14.4161 13.846 14.3629 13.9857 14.3629C14.1635 14.3629 14.319 14.4505 14.4524 14.6257L16.281 17.1129L16.0143 17.0753L17.7 14.6445C17.8333 14.4568 17.9921 14.3629 18.1762 14.3629ZM22.0117 20.9609C21.8338 20.9609 21.6878 20.9078 21.5735 20.8014C21.4592 20.6887 21.4021 20.5511 21.4021 20.3884V14.9448H22.6402V20.3884C22.6402 20.5511 22.5799 20.6887 22.4593 20.8014C22.345 20.9078 22.1957 20.9609 22.0117 20.9609ZM19.9068 15.4704C19.7418 15.4704 19.6021 15.4203 19.4878 15.3202C19.3799 15.2201 19.3259 15.0887 19.3259 14.926C19.3259 14.7634 19.3799 14.6351 19.4878 14.5412C19.6021 14.4411 19.7418 14.3911 19.9068 14.3911H24.1355C24.3005 14.3911 24.437 14.4411 24.545 14.5412C24.6593 14.6413 24.7164 14.7727 24.7164 14.9354C24.7164 15.0981 24.6593 15.2295 24.545 15.3296C24.437 15.4235 24.3005 15.4704 24.1355 15.4704H19.9068Z" fill="#8F00FF" fill-opacity="0.65"/>
</g>
<path d="M0 300H480V375C480 377.761 477.761 380 475 380H5.00001C2.23859 380 0 377.761 0 375V300Z" fill="#333333"/>
<rect x="75" y="315" width="330" height="10" rx="5" fill="#4FD9FF"/>
<path d="M7.54 319.5C7.54 318.124 7.804 317.04 8.332 316.248C8.868 315.456 9.728 315.06 10.912 315.06C12.096 315.06 12.952 315.456 13.48 316.248C14.016 317.04 14.284 318.124 14.284 319.5C14.284 320.892 14.016 321.984 13.48 322.776C12.952 323.568 12.096 323.964 10.912 323.964C9.728 323.964 8.868 323.568 8.332 322.776C7.804 321.984 7.54 320.892 7.54 319.5ZM12.268 319.5C12.268 318.692 12.18 318.072 12.004 317.64C11.828 317.2 11.464 316.98 10.912 316.98C10.36 316.98 9.996 317.2 9.82 317.64C9.644 318.072 9.556 318.692 9.556 319.5C9.556 320.044 9.588 320.496 9.652 320.856C9.716 321.208 9.844 321.496 10.036 321.72C10.236 321.936 10.528 322.044 10.912 322.044C11.296 322.044 11.584 321.936 11.776 321.72C11.976 321.496 12.108 321.208 12.172 320.856C12.236 320.496 12.268 320.044 12.268 319.5ZM15.9681 319.5C15.9681 318.124 16.2321 317.04 16.7601 316.248C17.2961 315.456 18.1561 315.06 19.3401 315.06C20.5241 315.06 21.3801 315.456 21.9081 316.248C22.4441 317.04 22.7121 318.124 22.7121 319.5C22.7121 320.892 22.4441 321.984 21.9081 322.776C21.3801 323.568 20.5241 323.964 19.3401 323.964C18.1561 323.964 17.2961 323.568 16.7601 322.776C16.2321 321.984 15.9681 320.892 15.9681 319.5ZM20.6961 319.5C20.6961 318.692 20.6081 318.072 20.4321 317.64C20.2561 317.2 19.8921 316.98 19.3401 316.98C18.7881 316.98 18.4241 317.2 18.2481 317.64C18.0721 318.072 17.9841 318.692 17.9841 319.5C17.9841 320.044 18.0161 320.496 18.0801 320.856C18.1441 321.208 18.2721 321.496 18.4641 321.72C18.6641 321.936 18.9561 322.044 19.3401 322.044C19.7241 322.044 20.0121 321.936 20.2041 321.72C20.4041 321.496 20.5361 321.208 20.6001 320.856C20.6641 320.496 20.6961 320.044 20.6961 319.5ZM25.5603 324.096C25.2003 324.096 24.9043 323.992 24.6723 323.784C24.4483 323.568 24.3363 323.304 24.3363 322.992C24.3363 322.672 24.4483 322.404 24.6723 322.188C24.9043 321.972 25.2003 321.864 25.5603 321.864C25.9123 321.864 26.2003 321.972 26.4243 322.188C26.6563 322.404 26.7723 322.672 26.7723 322.992C26.7723 323.304 26.6563 323.568 26.4243 323.784C26.2003 323.992 25.9123 324.096 25.5603 324.096ZM25.5603 319.212C25.2003 319.212 24.9043 319.108 24.6723 318.9C24.4483 318.684 24.3363 318.42 24.3363 318.108C24.3363 317.788 24.4483 317.52 24.6723 317.304C24.9043 317.088 25.2003 316.98 25.5603 316.98C25.9123 316.98 26.2003 317.088 26.4243 317.304C26.6563 317.52 26.7723 317.788 26.7723 318.108C26.7723 318.42 26.6563 318.684 26.4243 318.9C26.2003 319.108 25.9123 319.212 25.5603 319.212ZM28.4064 319.5C28.4064 318.124 28.6704 317.04 29.1984 316.248C29.7344 315.456 30.5944 315.06 31.7784 315.06C32.9624 315.06 33.8184 315.456 34.3464 316.248C34.8824 317.04 35.1504 318.124 35.1504 319.5C35.1504 320.892 34.8824 321.984 34.3464 322.776C33.8184 323.568 32.9624 323.964 31.7784 323.964C30.5944 323.964 29.7344 323.568 29.1984 322.776C28.6704 321.984 28.4064 320.892 28.4064 319.5ZM33.1344 319.5C33.1344 318.692 33.0464 318.072 32.8704 317.64C32.6944 317.2 32.3304 316.98 31.7784 316.98C31.2264 316.98 30.8624 317.2 30.6864 317.64C30.5104 318.072 30.4224 318.692 30.4224 319.5C30.4224 320.044 30.4544 320.496 30.5184 320.856C30.5824 321.208 30.7104 321.496 30.9024 321.72C31.1024 321.936 31.3944 322.044 31.7784 322.044C32.1624 322.044 32.4504 321.936 32.6424 321.72C32.8424 321.496 32.9744 321.208 33.0384 320.856C33.1024 320.496 33.1344 320.044 33.1344 319.5ZM36.8345 319.5C36.8345 318.124 37.0985 317.04 37.6265 316.248C38.1625 315.456 39.0225 315.06 40.2065 315.06C41.3905 315.06 42.2465 315.456 42.7745 316.248C43.3105 317.04 43.5785 318.124 43.5785 319.5C43.5785 320.892 43.3105 321.984 42.7745 322.776C42.2465 323.568 41.3905 323.964 40.2065 323.964C39.0225 323.964 38.1625 323.568 37.6265 322.776C37.0985 321.984 36.8345 320.892 36.8345 319.5ZM41.5625 319.5C41.5625 318.692 41.4745 318.072 41.2985 317.64C41.1225 317.2 40.7585 316.98 40.2065 316.98C39.6545 316.98 39.2905 317.2 39.1145 317.64C38.9385 318.072 38.8505 318.692 38.8505 319.5C38.8505 320.044 38.8825 320.496 38.9465 320.856C39.0105 321.208 39.1385 321.496 39.3305 321.72C39.5305 321.936 39.8225 322.044 40.2065 322.044C40.5905 322.044 40.8785 321.936 41.0705 321.72C41.2705 321.496 41.4025 321.208 41.4665 320.856C41.5305 320.496 41.5625 320.044 41.5625 319.5ZM46.4267 324.096C46.0667 324.096 45.7707 323.992 45.5387 323.784C45.3147 323.568 45.2027 323.304 45.2027 322.992C45.2027 322.672 45.3147 322.404 45.5387 322.188C45.7707 321.972 46.0667 321.864 46.4267 321.864C46.7787 321.864 47.0667 321.972 47.2907 322.188C47.5227 322.404 47.6387 322.672 47.6387 322.992C47.6387 323.304 47.5227 323.568 47.2907 323.784C47.0667 323.992 46.7787 324.096 46.4267 324.096ZM46.4267 319.212C46.0667 319.212 45.7707 319.108 45.5387 318.9C45.3147 318.684 45.2027 318.42 45.2027 318.108C45.2027 317.788 45.3147 317.52 45.5387 317.304C45.7707 317.088 46.0667 316.98 46.4267 316.98C46.7787 316.98 47.0667 317.088 47.2907 317.304C47.5227 317.52 47.6387 317.788 47.6387 318.108C47.6387 318.42 47.5227 318.684 47.2907 318.9C47.0667 319.108 46.7787 319.212 46.4267 319.212ZM49.2728 319.5C49.2728 318.124 49.5368 317.04 50.0648 316.248C50.6008 315.456 51.4608 315.06 52.6448 315.06C53.8288 315.06 54.6848 315.456 55.2128 316.248C55.7488 317.04 56.0168 318.124 56.0168 319.5C56.0168 320.892 55.7488 321.984 55.2128 322.776C54.6848 323.568 53.8288 323.964 52.6448 323.964C51.4608 323.964 50.6008 323.568 50.0648 322.776C49.5368 321.984 49.2728 320.892 49.2728 319.5ZM54.0008 319.5C54.0008 318.692 53.9128 318.072 53.7368 317.64C53.5608 317.2 53.1968 316.98 52.6448 316.98C52.0928 316.98 51.7288 317.2 51.5528 317.64C51.3768 318.072 51.2888 318.692 51.2888 319.5C51.2888 320.044 51.3208 320.496 51.3848 320.856C51.4488 321.208 51.5768 321.496 51.7688 321.72C51.9688 321.936 52.2608 322.044 52.6448 322.044C53.0288 322.044 53.3168 321.936 53.5088 321.72C53.7088 321.496 53.8408 321.208 53.9048 320.856C53.9688 320.496 54.0008 320.044 54.0008 319.5ZM57.7009 319.5C57.7009 318.124 57.9649 317.04 58.4929 316.248C59.0289 315.456 59.8889 315.06 61.0729 315.06C62.2569 315.06 63.1129 315.456 63.6409 316.248C64.1769 317.04 64.4449 318.124 64.4449 319.5C64.4449 320.892 64.1769 321.984 63.6409 322.776C63.1129 323.568 62.2569 323.964 61.0729 323.964C59.8889 323.964 59.0289 323.568 58.4929 322.776C57.9649 321.984 57.7009 320.892 57.7009 319.5ZM62.4289 319.5C62.4289 318.692 62.3409 318.072 62.1649 317.64C61.9889 317.2 61.6249 316.98 61.0729 316.98C60.5209 316.98 60.1569 317.2 59.9809 317.64C59.8049 318.072 59.7169 318.692 59.7169 319.5C59.7169 320.044 59.7489 320.496 59.8129 320.856C59.8769 321.208 60.0049 321.496 60.1969 321.72C60.3969 321.936 60.6889 322.044 61.0729 322.044C61.4569 322.044 61.7449 321.936 61.9369 321.72C62.1369 321.496 62.2689 321.208 62.3329 320.856C62.3969 320.496 62.4289 320.044 62.4289 319.5Z" fill="white"/>
<path d="M415.54 319.5C415.54 318.124 415.804 317.04 416.332 316.248C416.868 315.456 417.728 315.06 418.912 315.06C420.096 315.06 420.952 315.456 421.48 316.248C422.016 317.04 422.284 318.124 422.284 319.5C422.284 320.892 422.016 321.984 421.48 322.776C420.952 323.568 420.096 323.964 418.912 323.964C417.728 323.964 416.868 323.568 416.332 322.776C415.804 321.984 415.54 320.892 415.54 319.5ZM420.268 319.5C420.268 318.692 420.18 318.072 420.004 317.64C419.828 317.2 419.464 316.98 418.912 316.98C418.36 316.98 417.996 317.2 417.82 317.64C417.644 318.072 417.556 318.692 417.556 319.5C417.556 320.044 417.588 320.496 417.652 320.856C417.716 321.208 417.844 321.496 418.036 321.72C418.236 321.936 418.528 322.044 418.912 322.044C419.296 322.044 419.584 321.936 419.776 321.72C419.976 321.496 420.108 321.208 420.172 320.856C420.236 320.496 420.268 320.044 420.268 319.5ZM423.968 319.5C423.968 318.124 424.232 317.04 424.76 316.248C425.296 315.456 426.156 315.06 427.34 315.06C428.524 315.06 429.38 315.456 429.908 316.248C430.444 317.04 430.712 318.124 430.712 319.5C430.712 320.892 430.444 321.984 429.908 322.776C429.38 323.568 428.524 323.964 427.34 323.964C426.156 323.964 425.296 323.568 424.76 322.776C424.232 321.984 423.968 320.892 423.968 319.5ZM428.696 319.5C428.696 318.692 428.608 318.072 428.432 317.64C428.256 317.2 427.892 316.98 427.34 316.98C426.788 316.98 426.424 317.2 426.248 317.64C426.072 318.072 425.984 318.692 425.984 319.5C425.984 320.044 426.016 320.496 426.08 320.856C426.144 321.208 426.272 321.496 426.464 321.72C426.664 321.936 426.956 322.044 427.34 322.044C427.724 322.044 428.012 321.936 428.204 321.72C428.404 321.496 428.536 321.208 428.6 320.856C428.664 320.496 428.696 320.044 428.696 319.5ZM433.56 324.096C433.2 324.096 432.904 323.992 432.672 323.784C432.448 323.568 432.336 323.304 432.336 322.992C432.336 322.672 432.448 322.404 432.672 322.188C432.904 321.972 433.2 321.864 433.56 321.864C433.912 321.864 434.2 321.972 434.424 322.188C434.656 322.404 434.772 322.672 434.772 322.992C434.772 323.304 434.656 323.568 434.424 323.784C434.2 323.992 433.912 324.096 433.56 324.096ZM433.56 319.212C433.2 319.212 432.904 319.108 432.672 318.9C432.448 318.684 432.336 318.42 432.336 318.108C432.336 317.788 432.448 317.52 432.672 317.304C432.904 317.088 433.2 316.98 433.56 316.98C433.912 316.98 434.2 317.088 434.424 317.304C434.656 317.52 434.772 317.788 434.772 318.108C434.772 318.42 434.656 318.684 434.424 318.9C434.2 319.108 433.912 319.212 433.56 319.212ZM436.406 319.5C436.406 318.124 436.67 317.04 437.198 316.248C437.734 315.456 438.594 315.06 439.778 315.06C440.962 315.06 441.818 315.456 442.346 316.248C442.882 317.04 443.15 318.124 443.15 319.5C443.15 320.892 442.882 321.984 442.346 322.776C441.818 323.568 440.962 323.964 439.778 323.964C438.594 323.964 437.734 323.568 437.198 322.776C436.67 321.984 436.406 320.892 436.406 319.5ZM441.134 319.5C441.134 318.692 441.046 318.072 440.87 317.64C440.694 317.2 440.33 316.98 439.778 316.98C439.226 316.98 438.862 317.2 438.686 317.64C438.51 318.072 438.422 318.692 438.422 319.5C438.422 320.044 438.454 320.496 438.518 320.856C438.582 321.208 438.71 321.496 438.902 321.72C439.102 321.936 439.394 322.044 439.778 322.044C440.162 322.044 440.45 321.936 440.642 321.72C440.842 321.496 440.974 321.208 441.038 320.856C441.102 320.496 441.134 320.044 441.134 319.5ZM444.835 319.5C444.835 318.124 445.099 317.04 445.627 316.248C446.163 315.456 447.023 315.06 448.207 315.06C449.391 315.06 450.247 315.456 450.775 316.248C451.311 317.04 451.579 318.124 451.579 319.5C451.579 320.892 451.311 321.984 450.775 322.776C450.247 323.568 449.391 323.964 448.207 323.964C447.023 323.964 446.163 323.568 445.627 322.776C445.099 321.984 444.835 320.892 444.835 319.5ZM449.563 319.5C449.563 318.692 449.475 318.072 449.299 317.64C449.123 317.2 448.759 316.98 448.207 316.98C447.655 316.98 447.291 317.2 447.115 317.64C446.939 318.072 446.851 318.692 446.851 319.5C446.851 320.044 446.883 320.496 446.947 320.856C447.011 321.208 447.139 321.496 447.331 321.72C447.531 321.936 447.823 322.044 448.207 322.044C448.591 322.044 448.879 321.936 449.071 321.72C449.271 321.496 449.403 321.208 449.467 320.856C449.531 320.496 449.563 320.044 449.563 319.5ZM454.427 324.096C454.067 324.096 453.771 323.992 453.539 323.784C453.315 323.568 453.203 323.304 453.203 322.992C453.203 322.672 453.315 322.404 453.539 322.188C453.771 321.972 454.067 321.864 454.427 321.864C454.779 321.864 455.067 321.972 455.291 322.188C455.523 322.404 455.639 322.672 455.639 322.992C455.639 323.304 455.523 323.568 455.291 323.784C455.067 323.992 454.779 324.096 454.427 324.096ZM454.427 319.212C454.067 319.212 453.771 319.108 453.539 318.9C453.315 318.684 453.203 318.42 453.203 318.108C453.203 317.788 453.315 317.52 453.539 317.304C453.771 317.088 454.067 316.98 454.427 316.98C454.779 316.98 455.067 317.088 455.291 317.304C455.523 317.52 455.639 317.788 455.639 318.108C455.639 318.42 455.523 318.684 455.291 318.9C455.067 319.108 454.779 319.212 454.427 319.212ZM457.273 319.5C457.273 318.124 457.537 317.04 458.065 316.248C458.601 315.456 459.461 315.06 460.645 315.06C461.829 315.06 462.685 315.456 463.213 316.248C463.749 317.04 464.017 318.124 464.017 319.5C464.017 320.892 463.749 321.984 463.213 322.776C462.685 323.568 461.829 323.964 460.645 323.964C459.461 323.964 458.601 323.568 458.065 322.776C457.537 321.984 457.273 320.892 457.273 319.5ZM462.001 319.5C462.001 318.692 461.913 318.072 461.737 317.64C461.561 317.2 461.197 316.98 460.645 316.98C460.093 316.98 459.729 317.2 459.553 317.64C459.377 318.072 459.289 318.692 459.289 319.5C459.289 320.044 459.321 320.496 459.385 320.856C459.449 321.208 459.577 321.496 459.769 321.72C459.969 321.936 460.261 322.044 460.645 322.044C461.029 322.044 461.317 321.936 461.509 321.72C461.709 321.496 461.841 321.208 461.905 320.856C461.969 320.496 462.001 320.044 462.001 319.5ZM465.701 319.5C465.701 318.124 465.965 317.04 466.493 316.248C467.029 315.456 467.889 315.06 469.073 315.06C470.257 315.06 471.113 315.456 471.641 316.248C472.177 317.04 472.445 318.124 472.445 319.5C472.445 320.892 472.177 321.984 471.641 322.776C471.113 323.568 470.257 323.964 469.073 323.964C467.889 323.964 467.029 323.568 466.493 322.776C465.965 321.984 465.701 320.892 465.701 319.5ZM470.429 319.5C470.429 318.692 470.341 318.072 470.165 317.64C469.989 317.2 469.625 316.98 469.073 316.98C468.521 316.98 468.157 317.2 467.981 317.64C467.805 318.072 467.717 318.692 467.717 319.5C467.717 320.044 467.749 320.496 467.813 320.856C467.877 321.208 468.005 321.496 468.197 321.72C468.397 321.936 468.689 322.044 469.073 322.044C469.457 322.044 469.745 321.936 469.937 321.72C470.137 321.496 470.269 321.208 470.333 320.856C470.397 320.496 470.429 320.044 470.429 319.5Z" fill="white"/>
<rect x="78" y="341" width="30" height="30" rx="8" fill="#FFD177"/>
<path opacity="0.4" d="M94.9405 350.337C96.5735 351.265 97.8567 351.994 98.7709 352.662C99.6913 353.334 100.372 354.037 100.616 354.963C100.795 355.643 100.795 356.357 100.616 357.037C100.372 357.963 99.6913 358.666 98.7709 359.339C97.8567 360.006 96.5735 360.735 94.9406 361.663C93.3632 362.559 92.033 363.315 91.0232 363.744C90.0053 364.177 89.0773 364.397 88.1754 364.141C87.5125 363.953 86.9094 363.597 86.4236 363.107C85.7642 362.441 85.4995 361.522 85.3743 360.415C85.25 359.317 85.25 357.879 85.25 356.05V355.95C85.25 354.121 85.25 352.683 85.3743 351.585C85.4995 350.478 85.7642 349.559 86.4236 348.893C86.9094 348.403 87.5125 348.047 88.1754 347.859C89.0773 347.603 90.0053 347.823 91.0232 348.256C92.033 348.685 93.3632 349.441 94.9405 350.337Z" fill="black"/>
<path d="M98.7713 352.663C99.6918 353.335 100.372 354.038 100.616 354.964C100.795 355.644 100.795 356.359 100.616 357.038C100.372 357.965 99.6918 358.667 98.7713 359.34C97.8572 360.008 96.574 360.737 94.9411 361.664C93.3638 362.56 92.0335 363.316 91.0237 363.746C90.0058 364.179 89.0778 364.398 88.1758 364.142C87.513 363.955 86.9099 363.598 86.424 363.108C85.7646 362.443 85.5 361.523 85.3747 360.417C85.2989 359.746 85.2693 358.949 85.2578 358.015L97.1055 351.586C97.7533 351.972 98.3094 352.325 98.7713 352.663Z" fill="black"/>
<rect x="40" y="341" width="30" height="30" rx="8" fill="#FFD177"/>
<path d="M57.5347 351.877C56.708 352.474 56.0444 352.954 55.5559 353.381C55.058 353.817 54.6638 354.264 54.4587 354.824C54.1804 355.584 54.1804 356.416 54.4587 357.176C54.6638 357.735 55.058 358.183 55.5559 358.619C56.0444 359.046 56.708 359.525 57.5347 360.123C58.6694 360.942 59.6311 361.637 60.3654 362.067C61.0983 362.497 61.7965 362.791 62.5161 362.745C63.4636 362.685 64.3456 362.24 64.9534 361.512C65.4158 360.958 65.5876 360.222 65.6688 359.38C65.75 358.536 65.75 357.435 65.75 356.042V355.958C65.75 354.565 65.75 353.464 65.6688 352.62C65.5876 351.778 65.4158 351.042 64.9534 350.488C64.3456 349.76 63.4636 349.315 62.5161 349.255C61.7965 349.209 61.0983 349.503 60.3654 349.933C59.6311 350.363 58.6695 351.058 57.5347 351.877Z" fill="black"/>
<path opacity="0.4" d="M47.5347 351.877C46.708 352.474 46.0444 352.954 45.5559 353.381C45.058 353.817 44.6638 354.264 44.4587 354.824C44.1804 355.584 44.1804 356.416 44.4587 357.176C44.6638 357.735 45.058 358.183 45.5559 358.619C46.0444 359.046 46.708 359.525 47.5347 360.123C48.6695 360.942 49.6311 361.637 50.3654 362.067C51.0983 362.497 51.7965 362.791 52.5161 362.745C53.4636 362.685 54.3456 362.24 54.9534 361.512C55.4158 360.958 55.5876 360.222 55.6688 359.38C55.75 358.536 55.75 357.435 55.75 356.042V355.958C55.75 354.565 55.75 353.464 55.6688 352.62C55.5876 351.778 55.4158 351.042 54.9534 350.488C54.3456 349.76 53.4636 349.315 52.5161 349.255C51.7965 349.209 51.0983 349.503 50.3654 349.933C49.6311 350.363 48.6695 351.058 47.5347 351.877Z" fill="black"/>
<rect x="116" y="341" width="30" height="30" rx="8" fill="#FFD177"/>
<path d="M128.465 360.123C129.292 359.526 129.956 359.046 130.444 358.619C130.942 358.183 131.336 357.736 131.541 357.176C131.82 356.416 131.82 355.584 131.541 354.824C131.336 354.265 130.942 353.817 130.444 353.381C129.956 352.954 129.292 352.475 128.465 351.877C127.331 351.058 126.369 350.363 125.635 349.933C124.902 349.503 124.204 349.209 123.484 349.255C122.536 349.315 121.654 349.76 121.047 350.488C120.584 351.042 120.412 351.778 120.331 352.62C120.25 353.464 120.25 354.565 120.25 355.958V356.042C120.25 357.435 120.25 358.536 120.331 359.38C120.412 360.222 120.584 360.958 121.047 361.512C121.654 362.24 122.536 362.685 123.484 362.745C124.204 362.791 124.902 362.497 125.635 362.067C126.369 361.637 127.33 360.942 128.465 360.123Z" fill="black"/>
<path opacity="0.4" d="M138.465 360.123C139.292 359.526 139.956 359.046 140.444 358.619C140.942 358.183 141.336 357.736 141.541 357.176C141.82 356.416 141.82 355.584 141.541 354.824C141.336 354.265 140.942 353.817 140.444 353.381C139.956 352.954 139.292 352.475 138.465 351.877C137.331 351.058 136.369 350.363 135.635 349.933C134.902 349.503 134.203 349.209 133.484 349.255C132.536 349.315 131.654 349.76 131.047 350.488C130.584 351.042 130.412 351.778 130.331 352.62C130.25 353.464 130.25 354.565 130.25 355.958V356.042C130.25 357.435 130.25 358.536 130.331 359.38C130.412 360.222 130.584 360.958 131.047 361.512C131.654 362.24 132.536 362.685 133.484 362.745C134.203 362.791 134.902 362.497 135.635 362.067C136.369 361.637 137.331 360.942 138.465 360.123Z" fill="black"/>
<rect x="361" y="349" width="3" height="15" rx="1.5" fill="#FFEF61"/>
<rect x="368" y="347" width="3" height="19" rx="1.5" fill="#FFEE59"/>
<rect x="375" y="349" width="3" height="15" rx="1.5" fill="#FFED49"/>
<rect x="382" y="347" width="3" height="19" rx="1.5" fill="#FFEC3E"/>
<rect x="389" y="349" width="3" height="15" rx="1.5" fill="#FFEB38"/>
<rect x="396" y="347" width="3" height="19" rx="1.5" fill="#FFE91F"/>
<rect x="403" y="349" width="3" height="15" rx="1.5" fill="#FFE70E"/>
<rect x="305" y="349" width="3" height="15" rx="1.5" fill="#BAFF62"/>
<rect x="312" y="347" width="3" height="19" rx="1.5" fill="#BAFF63"/>
<rect x="319" y="349" width="3" height="15" rx="1.5" fill="#B7FF5A"/>
<rect x="326" y="347" width="3" height="19" rx="1.5" fill="#ACFF43"/>
<rect x="333" y="349" width="3" height="15" rx="1.5" fill="#A9FF3D"/>
<rect x="340" y="347" width="3" height="19" rx="1.5" fill="#A8FF39"/>
<rect x="347" y="349" width="3" height="15" rx="1.5" fill="#A0FF27"/>
<rect x="354" y="347" width="3" height="19" rx="1.5" fill="#8FFF00"/>
<rect x="410" y="347" width="3" height="19" rx="1.5" fill="#FFE500"/>
<rect x="417" y="349" width="3" height="15" rx="1.5" fill="#FF5E2B"/>
<rect x="424" y="347" width="3" height="19" rx="1.5" fill="#FF541E"/>
<rect x="431" y="349" width="3" height="15" rx="1.5" fill="#FF4C13"/>
<rect x="438" y="347" width="3" height="19" rx="1.5" fill="#FF3D00"/>
<circle cx="414.5" cy="356.5" r="8" stroke="#4FD9FF" stroke-width="3"/>
<rect x="267" y="341" width="30" height="30" rx="8" fill="#FFD177"/>
<mask id="mask0_40_2" style="mask-type:alpha" maskUnits="userSpaceOnUse" x="271" y="347" width="22" height="18">
<path d="M280.992 347.976C281.678 347.448 282.496 347.02 283.367 347.388C284.23 347.753 284.508 348.633 284.627 349.498C284.75 350.385 284.75 351.606 284.75 353.124V358.879C284.75 360.398 284.75 361.619 284.627 362.505C284.508 363.37 284.23 364.25 283.367 364.615C282.496 364.984 281.678 364.555 280.992 364.028C280.289 363.488 279.397 362.577 278.347 361.504C277.807 360.954 277.449 360.687 277.087 360.537C276.722 360.387 276.279 360.323 275.506 360.323C274.838 360.323 274.24 360.323 273.787 360.276C273.312 360.227 272.871 360.119 272.474 359.849C271.718 359.333 271.429 358.578 271.32 357.884C271.238 357.366 271.247 356.798 271.255 356.341V355.663C271.247 355.205 271.238 354.637 271.32 354.119C271.429 353.425 271.718 352.67 272.474 352.155C272.871 351.884 273.312 351.777 273.787 351.727C274.24 351.68 274.838 351.68 275.506 351.68C276.279 351.68 276.722 351.616 277.087 351.466C277.449 351.316 277.807 351.05 278.347 350.499C279.397 349.427 280.289 348.515 280.992 347.976Z" fill="black" fill-opacity="0.65"/>
<path fill-rule="evenodd" clip-rule="evenodd" d="M286.393 352.205C286.832 351.87 287.46 351.954 287.795 352.393C288.552 353.385 289 354.642 289 356C289 357.358 288.552 358.615 287.795 359.607C287.46 360.046 286.832 360.13 286.393 359.795C285.954 359.46 285.87 358.832 286.205 358.393C286.699 357.746 287 356.915 287 356C287 355.085 286.699 354.254 286.205 353.607C285.87 353.168 285.954 352.54 286.393 352.205Z" fill="black" fill-opacity="0.65"/>
<path fill-rule="evenodd" clip-rule="evenodd" d="M289.325 350.262C289.732 349.889 290.365 349.917 290.738 350.325C292.141 351.857 293 353.832 293 356C293 358.167 292.141 360.143 290.738 361.675C290.365 362.083 289.732 362.111 289.325 361.738C288.917 361.365 288.89 360.732 289.263 360.325C290.361 359.125 291 357.621 291 356C291 354.379 290.361 352.875 289.263 351.675C288.89 351.268 288.917 350.635 289.325 350.262Z" fill="black" fill-opacity="0.65"/>
</mask>
<g mask="url(#mask0_40_2)">
<rect x="265.491" y="344.498" width="28.3792" height="13.5874" transform="rotate(-15 265.491 344.498)" fill="black" fill-opacity="0.65"/>
</g>
<mask id="mask1_40_2" style="mask-type:alpha" maskUnits="userSpaceOnUse" x="271" y="347" width="22" height="18">
<path d="M280.992 347.976C281.678 347.448 282.496 347.02 283.367 347.388C284.23 347.753 284.508 348.633 284.627 349.498C284.75 350.385 284.75 351.606 284.75 353.124V358.879C284.75 360.398 284.75 361.619 284.627 362.505C284.508 363.37 284.23 364.25 283.367 364.615C282.496 364.984 281.678 364.555 280.992 364.028C280.289 363.488 279.397 362.577 278.347 361.504C277.807 360.954 277.449 360.687 277.087 360.537C276.722 360.387 276.279 360.323 275.506 360.323C274.838 360.323 274.24 360.323 273.787 360.276C273.312 360.227 272.871 360.119 272.474 359.849C271.718 359.333 271.429 358.578 271.32 357.884C271.238 357.366 271.247 356.798 271.255 356.341V355.663C271.247 355.205 271.238 354.637 271.32 354.119C271.429 353.425 271.718 352.67 272.474 352.155C272.871 351.884 273.312 351.777 273.787 351.727C274.24 351.68 274.838 351.68 275.506 351.68C276.279 351.68 276.722 351.616 277.087 351.466C277.449 351.316 277.807 351.05 278.347 350.499C279.397 349.427 280.289 348.515 280.992 347.976Z" fill="black"/>
<path fill-rule="evenodd" clip-rule="evenodd" d="M286.393 352.205C286.832 351.87 287.46 351.954 287.795 352.393C288.552 353.385 289 354.642 289 356C289 357.358 288.552 358.615 287.795 359.607C287.46 360.046 286.832 360.13 286.393 359.795C285.954 359.46 285.87 358.832 286.205 358.393C286.699 357.746 287 356.915 287 356C287 355.085 286.699 354.254 286.205 353.607C285.87 353.168 285.954 352.54 286.393 352.205Z" fill="black"/>
<path fill-rule="evenodd" clip-rule="evenodd" d="M289.325 350.262C289.732 349.889 290.365 349.917 290.738 350.325C292.141 351.857 293 353.832 293 356C293 358.167 292.141 360.143 290.738 361.675C290.365 362.083 289.732 362.111 289.325 361.738C288.917 361.365 288.89 360.732 289.263 360.325C290.361 359.125 291 357.621 291 356C291 354.379 290.361 352.875 289.263 351.675C288.89 351.268 288.917 350.635 289.325 350.262Z" fill="black"/>
</mask>
<g mask="url(#mask1_40_2)">
<rect x="266.666" y="358.236" width="30.2672" height="16.9523" transform="rotate(-15 266.666 358.236)" fill="black"/>
</g>
<rect x="229" y="341" width="30" height="30" rx="8" fill="#FFD177"/>
<mask id="mask2_40_2" style="mask-type:alpha" maskUnits="userSpaceOnUse" x="233" y="345" width="22" height="22">
<path d="M248.507 351.493C248.191 351.176 247.814 351.074 247.518 351.034C247.264 351 246.963 351 246.683 351L244.818 351C244.266 351 243.818 351.448 243.818 352C243.818 352.196 243.874 352.378 243.971 352.532C243.982 352.548 243.987 352.557 243.997 352.57C244.008 352.583 244.017 352.592 244.037 352.612L244.581 353.156C244.781 353.356 244.881 353.456 244.881 353.58C244.881 353.705 244.781 353.805 244.581 354.005L242.344 356.242C242.218 356.368 242.155 356.43 242.081 356.452C242.006 356.473 241.907 356.45 241.709 356.404C241.574 356.373 241.436 356.349 241.294 356.33C240.7 356.25 239.951 356.25 239.052 356.25H237.948C237.05 356.25 236.3 356.25 235.706 356.33C235.078 356.414 234.511 356.6 234.055 357.056C233.6 357.511 233.414 358.078 233.33 358.706C233.25 359.3 233.25 360.05 233.25 360.948V362.052C233.25 362.951 233.25 363.7 233.33 364.295C233.414 364.922 233.6 365.489 234.055 365.945C234.511 366.4 235.078 366.586 235.706 366.67C236.3 366.75 237.05 366.75 237.948 366.75H239.052C239.95 366.75 240.7 366.75 241.294 366.67C241.922 366.586 242.489 366.4 242.945 365.945C243.4 365.489 243.586 364.922 243.67 364.295C243.75 363.7 243.75 362.951 243.75 362.052V360.948C243.75 360.05 243.75 359.3 243.67 358.706C243.651 358.564 243.627 358.426 243.596 358.291C243.55 358.093 243.527 357.994 243.548 357.919C243.57 357.845 243.633 357.782 243.758 357.656L245.995 355.419C246.195 355.219 246.295 355.119 246.42 355.119C246.544 355.119 246.644 355.219 246.844 355.419L247.388 355.964C247.408 355.983 247.417 355.992 247.43 356.003C247.443 356.013 247.452 356.018 247.468 356.029C247.622 356.126 247.804 356.182 248 356.182C248.552 356.182 249 355.734 249 355.182V353.317C249 353.037 249 352.736 248.966 352.482C248.926 352.186 248.824 351.809 248.507 351.493Z" fill="black"/>
<path fill-rule="evenodd" clip-rule="evenodd" d="M241.068 346.227C241.068 345.688 241.506 345.25 242.045 345.25H245.955C246.494 345.25 246.932 345.688 246.932 346.227C246.932 346.767 246.494 347.205 245.955 347.205H242.045C241.506 347.205 241.068 346.767 241.068 346.227ZM249.385 346.146C249.462 345.612 249.958 345.241 250.492 345.319C251.646 345.485 252.617 345.832 253.392 346.608C254.168 347.383 254.515 348.354 254.681 349.508C254.759 350.042 254.388 350.538 253.854 350.615C253.32 350.692 252.824 350.322 252.747 349.788C252.613 348.859 252.374 348.354 252.01 347.99C251.646 347.626 251.141 347.387 250.212 347.253C249.678 347.176 249.308 346.68 249.385 346.146ZM238.615 346.146C238.692 346.68 238.322 347.176 237.788 347.253C236.859 347.387 236.354 347.626 235.99 347.99C235.626 348.354 235.387 348.859 235.253 349.788C235.176 350.322 234.68 350.692 234.146 350.615C233.612 350.538 233.241 350.042 233.319 349.508C233.485 348.354 233.832 347.383 234.608 346.608C235.383 345.832 236.354 345.485 237.508 345.319C238.042 345.241 238.538 345.612 238.615 346.146ZM234.227 351.602C234.767 351.602 235.205 352.04 235.205 352.58V354.023C235.205 354.563 234.767 355 234.227 355C233.688 355 233.25 354.563 233.25 354.023V352.58C233.25 352.04 233.688 351.602 234.227 351.602ZM253.773 353.068C254.312 353.068 254.75 353.506 254.75 354.045V357.955C254.75 358.494 254.312 358.932 253.773 358.932C253.233 358.932 252.795 358.494 252.795 357.955V354.045C252.795 353.506 253.233 353.068 253.773 353.068ZM253.854 361.385C254.388 361.462 254.759 361.958 254.681 362.492C254.515 363.646 254.168 364.617 253.392 365.392C252.617 366.168 251.646 366.515 250.492 366.681C249.958 366.759 249.462 366.388 249.385 365.854C249.308 365.32 249.678 364.824 250.212 364.747C251.141 364.613 251.646 364.374 252.01 364.01C252.374 363.646 252.613 363.141 252.747 362.212C252.824 361.678 253.32 361.308 253.854 361.385ZM245 365.773C245 365.233 245.437 364.795 245.977 364.795H247.42C247.96 364.795 248.398 365.233 248.398 365.773C248.398 366.312 247.96 366.75 247.42 366.75H245.977C245.437 366.75 245 366.312 245 365.773Z" fill="black"/>
</mask>
<g mask="url(#mask2_40_2)">
<rect x="229.392" y="359.552" width="28.3993" height="15.9306" transform="rotate(-16.4759 229.392 359.552)" fill="black"/>
</g>
<mask id="mask3_40_2" style="mask-type:alpha" maskUnits="userSpaceOnUse" x="233" y="345" width="22" height="22">
<path d="M248.507 351.493C248.191 351.176 247.814 351.074 247.518 351.034C247.264 351 246.963 351 246.683 351L244.818 351C244.266 351 243.818 351.448 243.818 352C243.818 352.196 243.874 352.378 243.971 352.532C243.982 352.548 243.987 352.557 243.997 352.57C244.008 352.583 244.017 352.592 244.037 352.612L244.581 353.156C244.781 353.356 244.881 353.456 244.881 353.58C244.881 353.705 244.781 353.805 244.581 354.005L242.344 356.242C242.218 356.368 242.155 356.43 242.081 356.452C242.006 356.473 241.907 356.45 241.709 356.404C241.574 356.373 241.436 356.349 241.294 356.33C240.7 356.25 239.951 356.25 239.052 356.25H237.948C237.05 356.25 236.3 356.25 235.706 356.33C235.078 356.414 234.511 356.6 234.055 357.056C233.6 357.511 233.414 358.078 233.33 358.706C233.25 359.3 233.25 360.05 233.25 360.948V362.052C233.25 362.951 233.25 363.7 233.33 364.295C233.414 364.922 233.6 365.489 234.055 365.945C234.511 366.4 235.078 366.586 235.706 366.67C236.3 366.75 237.05 366.75 237.948 366.75H239.052C239.95 366.75 240.7 366.75 241.294 366.67C241.922 366.586 242.489 366.4 242.945 365.945C243.4 365.489 243.586 364.922 243.67 364.295C243.75 363.7 243.75 362.951 243.75 362.052V360.948C243.75 360.05 243.75 359.3 243.67 358.706C243.651 358.564 243.627 358.426 243.596 358.291C243.55 358.093 243.527 357.994 243.548 357.919C243.57 357.845 243.633 357.782 243.758 357.656L245.995 355.419C246.195 355.219 246.295 355.119 246.42 355.119C246.544 355.119 246.644 355.219 246.844 355.419L247.388 355.964C247.408 355.983 247.417 355.992 247.43 356.003C247.443 356.013 247.452 356.018 247.468 356.029C247.622 356.126 247.804 356.182 248 356.182C248.552 356.182 249 355.734 249 355.182V353.317C249 353.037 249 352.736 248.966 352.482C248.926 352.186 248.824 351.809 248.507 351.493Z" fill="black" fill-opacity="0.75"/>
<path fill-rule="evenodd" clip-rule="evenodd" d="M241.068 346.227C241.068 345.688 241.506 345.25 242.045 345.25H245.955C246.494 345.25 246.932 345.688 246.932 346.227C246.932 346.767 246.494 347.205 245.955 347.205H242.045C241.506 347.205 241.068 346.767 241.068 346.227ZM249.385 346.146C249.462 345.612 249.958 345.241 250.492 345.319C251.646 345.485 252.617 345.832 253.392 346.608C254.168 347.383 254.515 348.354 254.681 349.508C254.759 350.042 254.388 350.538 253.854 350.615C253.32 350.692 252.824 350.322 252.747 349.788C252.613 348.859 252.374 348.354 252.01 347.99C251.646 347.626 251.141 347.387 250.212 347.253C249.678 347.176 249.308 346.68 249.385 346.146ZM238.615 346.146C238.692 346.68 238.322 347.176 237.788 347.253C236.859 347.387 236.354 347.626 235.99 347.99C235.626 348.354 235.387 348.859 235.253 349.788C235.176 350.322 234.68 350.692 234.146 350.615C233.612 350.538 233.241 350.042 233.319 349.508C233.485 348.354 233.832 347.383 234.608 346.608C235.383 345.832 236.354 345.485 237.508 345.319C238.042 345.241 238.538 345.612 238.615 346.146ZM234.227 351.602C234.767 351.602 235.205 352.04 235.205 352.58V354.023C235.205 354.563 234.767 355 234.227 355C233.688 355 233.25 354.563 233.25 354.023V352.58C233.25 352.04 233.688 351.602 234.227 351.602ZM253.773 353.068C254.312 353.068 254.75 353.506 254.75 354.045V357.955C254.75 358.494 254.312 358.932 253.773 358.932C253.233 358.932 252.795 358.494 252.795 357.955V354.045C252.795 353.506 253.233 353.068 253.773 353.068ZM253.854 361.385C254.388 361.462 254.759 361.958 254.681 362.492C254.515 363.646 254.168 364.617 253.392 365.392C252.617 366.168 251.646 366.515 250.492 366.681C249.958 366.759 249.462 366.388 249.385 365.854C249.308 365.32 249.678 364.824 250.212 364.747C251.141 364.613 251.646 364.374 252.01 364.01C252.374 363.646 252.613 363.141 252.747 362.212C252.824 361.678 253.32 361.308 253.854 361.385ZM245 365.773C245 365.233 245.437 364.795 245.977 364.795H247.42C247.96 364.795 248.398 365.233 248.398 365.773C248.398 366.312 247.96 366.75 247.42 366.75H245.977C245.437 366.75 245 366.312 245 365.773Z" fill="black" fill-opacity="0.75"/>
</mask>
<g mask="url(#mask3_40_2)">
<rect x="225.891" y="345.629" width="29.5209" height="14.9506" transform="rotate(-16.4759 225.891 345.629)" fill="black" fill-opacity="0.75"/>
</g>
<rect x="191" y="341" width="30" height="30" rx="8" fill="#FFD177"/>
<path d="M214.126 351.187C214.575 350.866 215.2 350.969 215.521 351.417C216.451 352.714 216.998 354.295 216.998 356C216.998 360.444 213.304 364 208.804 364H202.61V365C202.61 365.251 202.516 365.503 202.327 365.697C201.941 366.093 201.308 366.102 200.912 365.717L199.91 364.741C199.719 364.555 199.468 364.312 199.322 364.122C199.193 363.956 198.821 363.434 199.094 362.794C199.36 362.167 199.978 362.061 200.184 362.033C200.422 362 200.721 362 200.993 362H201.043H208.804C212.251 362 214.998 359.288 214.998 356C214.998 354.73 214.592 353.554 213.896 352.583C213.574 352.134 213.677 351.509 214.126 351.187Z" fill="black"/>
<path d="M197.874 360.813C197.425 361.134 196.8 361.031 196.479 360.583C195.549 359.286 195.002 357.705 195.002 356C195.002 351.556 198.696 348 203.196 348H209.39V347C209.39 346.749 209.484 346.497 209.673 346.303C210.059 345.907 210.692 345.898 211.088 346.283L212.09 347.259C212.281 347.445 212.532 347.688 212.678 347.878C212.807 348.044 213.179 348.566 212.906 349.206C212.64 349.833 212.022 349.939 211.816 349.967C211.578 350 211.279 350 211.007 350L210.957 350H203.196C199.749 350 197.002 352.712 197.002 356C197.002 357.269 197.408 358.446 198.104 359.417C198.426 359.866 198.323 360.491 197.874 360.813Z" fill="black" fill-opacity="0.65"/>
<rect width="480" height="265" transform="translate(0 35)" fill="black"/>
<path d="M302.477 131.208C292.573 123.974 278.671 116.076 260.981 106.027C243.893 96.3181 229.483 88.1316 218.543 83.4785C207.516 78.7881 197.462 76.4108 187.691 79.1797C180.511 81.2145 173.977 85.0767 168.714 90.3869C161.57 97.5939 158.703 107.555 157.346 119.543C156 131.442 156 147.02 156 166.832L156 166.833V167.919L156 167.92C156 187.731 156 203.31 157.346 215.209C158.703 227.197 161.57 237.157 168.714 244.364C173.977 249.675 180.511 253.537 187.691 255.572C197.462 258.341 207.516 255.964 218.543 251.273C229.483 246.62 243.893 238.433 260.982 228.724C278.671 218.675 292.573 210.778 302.477 203.543C312.448 196.259 319.823 188.645 322.464 178.608C324.401 171.247 324.401 163.504 322.464 156.143C319.823 146.106 312.448 138.493 302.477 131.208Z" fill="#67FF5B"/>
<path d="M302.481 131.222C312.453 138.506 319.827 146.119 322.469 156.156C324.406 163.517 324.406 171.261 322.469 178.621C319.827 188.659 312.453 196.272 302.481 203.556C292.578 210.791 278.677 218.688 260.987 228.738C243.9 238.446 229.488 246.633 218.548 251.286C207.521 255.977 197.467 258.353 187.696 255.586C180.516 253.55 173.982 249.688 168.719 244.377C161.575 237.171 158.708 227.21 157.351 215.223C156.53 207.96 156.209 199.328 156.084 189.2L284.435 119.556C291.452 123.742 297.477 127.567 302.481 131.222Z" fill="#FF5959"/>
<path d="M224.68 140.76C225.907 140.76 227 141.24 227.96 142.2C228.973 143.107 229.48 144.28 229.48 145.72C229.48 146.2 229.4 146.707 229.24 147.24C229.133 147.72 228.92 148.2 228.6 148.68L210.44 174.68L211.88 169.16V192.12C211.88 193.507 211.4 194.68 210.44 195.64C209.533 196.547 208.467 197 207.24 197C205.907 197 204.76 196.547 203.8 195.64C202.893 194.68 202.44 193.507 202.44 192.12V169.8L203.08 172.36L185.8 149.4C185.267 148.707 184.893 148.04 184.68 147.4C184.467 146.76 184.36 146.173 184.36 145.64C184.36 144.2 184.92 143.027 186.04 142.12C187.16 141.213 188.307 140.76 189.48 140.76C190.973 140.76 192.28 141.507 193.4 143L208.76 164.2L206.52 163.88L220.68 143.16C221.8 141.56 223.133 140.76 224.68 140.76ZM256.898 197C255.404 197 254.178 196.547 253.218 195.64C252.258 194.68 251.778 193.507 251.778 192.12V145.72H262.178V192.12C262.178 193.507 261.671 194.68 260.658 195.64C259.698 196.547 258.444 197 256.898 197ZM239.218 150.2C237.831 150.2 236.658 149.773 235.698 148.92C234.791 148.067 234.338 146.947 234.338 145.56C234.338 144.173 234.791 143.08 235.698 142.28C236.658 141.427 237.831 141 239.218 141H274.738C276.124 141 277.271 141.427 278.178 142.28C279.138 143.133 279.618 144.253 279.618 145.64C279.618 147.027 279.138 148.147 278.178 149C277.271 149.8 276.124 150.2 274.738 150.2H239.218Z" fill="#8F00FF" fill-opacity="0.65"/>
</g>
<defs>
<clipPath id="clip0_40_2">
<rect width="480" height="380" fill="white"/>
</clipPath>
<clipPath id="clip1_40_2">
<rect width="20" height="21" fill="white" transform="translate(10 7)"/>
</clipPath>
</defs>
</svg>
